<svg xmlns="http://www.w3.org/2000/svg" version="1.1" viewBox="0 0 48 48" overflow="hidden" fill="currentColor"><g id="pictogram"><g><path d=" M 36.707 2.293 L 35.293 3.707 L 42.586 11 L 2 11 L 2 13 L 42.586 13 L 35.293 20.293 L 36.707 21.707 L 45.707 12.707 L 45.707 11.293 Z" /><path d=" M 3 22 L 2 23 L 2 35 L 3 36 L 15 36 L 16 35 L 16 23 L 15 22 L 3 22 Z M 14 34 L 4 34 L 4 24 L 14 24 L 14 34 Z" /><path d=" M 22 32 L 21 33 L 21 45 L 22 46 L 34 46 L 35 45 L 35 33 L 34 32 L 22 32 Z M 33 44 L 23 44 L 23 34 L 33 34 L 33 44 Z" /></g></g></g></svg>