<svg xmlns="http://www.w3.org/2000/svg" id="pictogram" viewBox="0 0 48 48" fill="currentColor"><polygon points="35.69 13.71 34.27 12.3 41.58 4.99 6.38 5.02 13.64 12.25 12.23 13.67 3.25 4.74 3.96 3.03 44 2.98 44.71 4.69 35.69 13.71" /><path d="M23.92,45.96c-10.46,0-18.98-8.51-18.98-18.98S13.45,8.01,23.92,8.01s18.98,8.51,18.98,18.98-8.51,18.98-18.98,18.98Zm0-35.96c-9.36,0-16.98,7.62-16.98,16.98s7.62,16.98,16.98,16.98,16.98-7.62,16.98-16.98-7.62-16.98-16.98-16.98Z" /><path d="M23.93,41.98c-8.31,0-15.07-6.76-15.07-15.07s6.76-15.07,15.07-15.07,15.07,6.76,15.07,15.07-6.76,15.07-15.07,15.07Zm0-28.15c-7.21,0-13.07,5.87-13.07,13.07s5.87,13.07,13.07,13.07,13.07-5.87,13.07-13.07-5.87-13.07-13.07-13.07Z" /><path d="M24,30.54c-1.96,0-3.55-1.59-3.55-3.55s1.59-3.55,3.55-3.55,3.55,1.59,3.55,3.55-1.59,3.55-3.55,3.55Zm0-5.11c-.86,0-1.55,.7-1.55,1.55s.7,1.55,1.55,1.55,1.55-.7,1.55-1.55-.7-1.55-1.55-1.55Z" /><path d="M22,25.21l-1.07-5.28c0-1.65,1.34-2.99,2.99-2.99s2.99,1.34,2.99,2.99l-.02,.17-.89,5.04-1.97-.35,.87-4.94c-.04-.51-.47-.92-.99-.92s-.94,.4-.99,.9l1.02,4.96-1.96,.4Z" /><path d="M23.93,36.94c-1.65,0-2.99-1.34-2.99-2.99l.02-.21,1.06-4.97,1.96,.42-1.04,4.85c.04,.5,.47,.9,.99,.9s.95-.4,.99-.91l-.92-4.9,1.97-.37,.95,5.19c0,1.65-1.34,2.99-2.99,2.99Z" /><path d="M16.92,29.93c-1.65,0-2.99-1.34-2.99-2.99s1.34-2.99,2.99-2.99l.2,.02,5.08,1.03-.4,1.96-4.97-1.01c-.51,.04-.91,.47-.91,.99s.4,.95,.91,.99l4.98-.93,.37,1.97-5.27,.96Z" /><path d="M30.94,29.93l-.19-.02-4.94-.95,.38-1.96,4.83,.93c.51-.04,.91-.47,.91-.99,0-.27-.11-.53-.3-.71-.09-.08-.27-.22-.51-.22l-4.94,.92-.37-1.97,5.13-.95c.75-.05,1.49,.22,2.05,.75,.59,.56,.93,1.35,.93,2.17,0,1.65-1.34,2.99-2.99,2.99Z" /></svg>