<?xml version="1.0" encoding="UTF-8" standalone="no"?>
<!-- Created with Inkscape (http://www.inkscape.org/) -->

<svg
   version="1.1"
   id="svg1"
   width="48.489727"
   height="54.600349"
   viewBox="0 0 48.489727 54.600349"
   xmlns="http://www.w3.org/2000/svg"
   xmlns:svg="http://www.w3.org/2000/svg">
  <defs
     id="defs1">
    <rect
       x="73.5"
       y="89"
       width="179.5"
       height="92.5"
       id="rect4" />
  </defs>
  <g
     id="g1"
     transform="translate(-158.92188,-54.55022)">
    <path
       style="display:inline;fill:#22c55e;fill-opacity:1;stroke-width:1.18043"
       d="m 174.45744,86.49748 c 1.06427,-1.0969 3.57059,-2.235889 5.35402,-2.744756 3.81821,-1.089446 3.86468,-2.094852 0.14656,-3.172077 -4.77699,-1.384008 -6.11718,-2.717894 -14.09653,-14.030043 -4.27144,-6.055553 -6.93961,-10.357967 -6.93961,-11.172472 -10e-6,-1.272605 12.47984,-0.716869 13.09353,0.285267 2.96316,4.838758 36.24231,53.107351 35.37972,53.207441 -0.92397,0.10721 -11.16566,0.56084 -12.80513,0.0189 -2.58507,-1.97929 -7.09475,-17.115783 -11.62237,-17.022705 -4.23402,0.08704 -4.69069,4.759534 -6.73737,8.554865 -1.52214,2.8226 -3.87397,7.77806 -4.56639,8.46784 -1.07449,0.2613 -12.03735,0.18065 -12.52687,-0.26464 0,-1.20968 8.85246,-15.461334 15.32044,-22.127628 z m 14.29199,-12.641635 c -0.80427,-0.789385 -1.46231,-2.118932 -1.46231,-2.954558 0,-0.863318 1.72634,-4.890582 3.27078,-9.477978 0.84942,-2.523 2.52204,-5.645534 3.88037,-6.648276 4.32222,-0.321324 8.49287,-0.291477 12.68435,0.04653 1.17777,0.09497 -10.57805,17.668745 -12.11717,18.939854 -2.31785,1.914267 -4.3703,1.945246 -6.25602,0.09438 z"
       id="path1" />
  </g>
</svg>
