<?xml version="1.0" encoding="UTF-8"?>
<!-- Created with Inkscape (http://www.inkscape.org/) -->
<svg width="48.49" height="54.6" version="1.1" viewBox="0 0 48.49 54.6" xmlns="http://www.w3.org/2000/svg">
 <g transform="translate(-158.92 -54.55)">
  <path d="m174.46 86.497c1.0643-1.0969 3.5706-2.2359 5.354-2.7448 3.8182-1.0894 3.8647-2.0949 0.14656-3.1721-4.777-1.384-6.1172-2.7179-14.097-14.03-4.2714-6.0556-6.9396-10.358-6.9396-11.172-1e-5 -1.2726 12.48-0.71687 13.094 0.28527 2.9632 4.8388 36.242 53.107 35.38 53.207-0.92397 0.10721-11.166 0.56084-12.805 0.0189-2.5851-1.9793-7.0948-17.116-11.622-17.023-4.234 0.08704-4.6907 4.7595-6.7374 8.5549-1.5221 2.8226-3.874 7.7781-4.5664 8.4678-1.0745 0.2613-12.037 0.18065-12.527-0.26464 0-1.2097 8.8525-15.461 15.32-22.128zm14.292-12.642c-0.80427-0.78938-1.4623-2.1189-1.4623-2.9546 0-0.86332 1.7263-4.8906 3.2708-9.478 0.84942-2.523 2.522-5.6455 3.8804-6.6483 4.3222-0.32132 8.4929-0.29148 12.684 0.04653 1.1778 0.09497-10.578 17.669-12.117 18.94-2.3178 1.9143-4.3703 1.9452-6.256 0.09438z" fill="#fff" stroke-width="1.1804"/>
 </g>
</svg>
