<svg xmlns="http://www.w3.org/2000/svg" version="1.1" viewBox="0 0 48 48" overflow="hidden" fill="currentColor"><g id="pictogram"><g><path d=" M 45.707 14.595 L 33.405 2.293 L 32.698 2 L 15.302 2 L 14.595 2.293 L 2.293 14.595 L 2 15.302 L 2 32.698 L 2.293 33.405 L 14.595 45.707 L 15.302 46 L 32.698 46 L 33.405 45.707 L 45.707 33.405 L 46 32.698 L 46 15.302 L 45.707 14.595 Z M 44 32.284 L 32.284 44 L 15.716 44 L 4 32.284 L 4 15.716 L 15.716 4 L 32.284 4 L 44 15.716 L 44 32.284 Z" /><path d=" M 36 26 L 39 26 L 39.707 25.707 L 40.707 24.707 L 41 24 L 41 21 L 40.707 20.293 L 39.707 19.293 L 39 19 L 35 19 L 34 20 L 34 29 L 36 29 L 36 26 Z M 36 21 L 38.586 21 L 39 21.414 L 39 23.586 L 38.586 24 L 36 24 L 36 21 Z" /><path d=" M 30.707 19.293 L 30 19 L 27 19 L 26.293 19.293 L 25.293 20.293 L 25 21 L 25 27 L 25.293 27.707 L 26.293 28.707 L 27 29 L 30 29 L 30.707 28.707 L 31.707 27.707 L 32 27 L 32 21 L 31.707 20.293 L 30.707 19.293 Z M 30 26.586 L 29.586 27 L 27.414 27 L 27 26.586 L 27 21.414 L 27.414 21 L 29.586 21 L 30 21.414 L 30 26.586 Z" /><path d=" M 13.707 19.293 L 13 19 L 10 19 L 9.293 19.293 L 8.293 20.293 L 8 21 L 8 23 L 8.629 23.929 L 13 25.677 L 13 26.586 L 12.586 27 L 10.414 27 L 10 26.586 L 10 26 L 8 26 L 8 27 L 8.293 27.707 L 9.293 28.707 L 10 29 L 13 29 L 13.707 28.707 L 14.707 27.707 L 15 27 L 15 25 L 14.371 24.071 L 10 22.323 L 10 21.414 L 10.414 21 L 12.586 21 L 13 21.414 L 13 22 L 15 22 L 15 21 L 14.707 20.293 Z" /><path d=" M 19 19 L 17 19 L 17 21 L 19 21 L 19 29 L 21 29 L 21 21 L 23 21 L 23 19 L 21 19 Z" /></g></g></svg>