<svg xmlns="http://www.w3.org/2000/svg" viewBox="0 0 48 48" overflow="hidden" fill="currentColor"><g id="pictogram"><g><rect x="41" y="31" width="4" height="12" stroke="#000000" stroke-width="2" stroke-linejoin="bevel" stroke-miterlimit="10" fill="none" /><path d="M41 33 35 31 23 31C21.9 31 21 31.9 21 33 21 34.1 21.9 35 23 35L31 35" stroke="#000000" stroke-width="2" stroke-linejoin="bevel" stroke-miterlimit="10" fill="none" /><path d="M28 35 23 38 15.1 38C14.1 38 13.2 38.7 13 39.7 12.8 41 13.8 42 15 42L23 42 31 41 41 41" stroke="#000000" stroke-width="2" stroke-linejoin="bevel" stroke-miterlimit="10" fill="none" /><path d="M8 5C8 5 3 10.8 3 15 3 18.1 5 21 8 21 11 21 13 18.1 13 15 13 10.8 8 5 8 5Z" stroke="#000000" stroke-width="2" stroke-linejoin="bevel" stroke-miterlimit="10" fill="none" /><path d="M20 17.4C20 17.4 17 20.9 17 23.4 17 25.3 18.2 27 20 27 21.8 27 23 25.3 23 23.4 23 20.9 20 17.4 20 17.4Z" stroke="#000000" stroke-width="2" stroke-linejoin="bevel" stroke-miterlimit="10" fill="none" /></g></g></svg>