<svg xmlns="http://www.w3.org/2000/svg" version="1.1" viewBox="0 0 48 48" overflow="hidden" fill="currentColor"><g id="pictogram"><g><path d=" M 45 2 L 3 2 L 2 3 L 2 45 L 3 46 L 45 46 L 46 45 L 46 3 L 45 2 Z M 44 44 L 4 44 L 4 4 L 44 4 L 44 44 Z" /><rect x="8" y="8" width="2" height="2" /><rect x="13" y="8" width="2" height="2" /><rect x="18" y="8" width="2" height="2" /><rect x="23" y="8" width="2" height="2" /><rect x="28" y="8" width="2" height="2" /><rect x="33" y="8" width="2" height="2" /><rect x="38" y="8" width="2" height="2" /><rect x="8" y="13" width="2" height="2" /><rect x="13" y="13" width="2" height="2" /><rect x="18" y="13" width="2" height="2" /><rect x="23" y="13" width="2" height="2" /><rect x="28" y="13" width="2" height="2" /><rect x="33" y="13" width="2" height="2" /><rect x="38" y="13" width="2" height="2" /><rect x="8" y="18" width="2" height="2" /><rect x="13" y="18" width="2" height="2" /><rect x="18" y="18" width="2" height="2" /><rect x="23" y="18" width="2" height="2" /><rect x="28" y="18" width="2" height="2" /><rect x="33" y="18" width="2" height="2" /><rect x="38" y="18" width="2" height="2" /><rect x="8" y="23" width="2" height="2" /><rect x="13" y="23" width="2" height="2" /><rect x="18" y="23" width="2" height="2" /><rect x="23" y="23" width="2" height="2" /><rect x="28" y="23" width="2" height="2" /><rect x="33" y="23" width="2" height="2" /><rect x="38" y="23" width="2" height="2" /><rect x="8" y="28" width="2" height="2" /><rect x="13" y="28" width="2" height="2" /><rect x="18" y="28" width="2" height="2" /><rect x="23" y="28" width="2" height="2" /><rect x="28" y="28" width="2" height="2" /><rect x="33" y="28" width="2" height="2" /><rect x="38" y="28" width="2" height="2" /><rect x="8" y="33" width="2" height="2" /><rect x="13" y="33" width="2" height="2" /><rect x="18" y="33" width="2" height="2" /><rect x="23" y="33" width="2" height="2" /><rect x="28" y="33" width="2" height="2" /><rect x="33" y="33" width="2" height="2" /><rect x="38" y="33" width="2" height="2" /><rect x="8" y="38" width="2" height="2" /><rect x="13" y="38" width="2" height="2" /><rect x="18" y="38" width="2" height="2" /><rect x="23" y="38" width="2" height="2" /><rect x="28" y="38" width="2" height="2" /><rect x="33" y="38" width="2" height="2" /><rect x="38" y="38" width="2" height="2" /></g></g></svg>