<svg xmlns="http://www.w3.org/2000/svg" viewBox="0 0 48 48" overflow="hidden" fill="currentColor"><g id="pictogram"><g><g><path d="M33 41 10 41 8 45 35 45Z" stroke="#000000" stroke-width="2" stroke-linejoin="bevel" stroke-miterlimit="10" fill="none" /><line x1="13" y1="41" x2="17" y2="26" stroke="#000000" stroke-width="2" stroke-miterlimit="10" fill="none" /><line x1="26" y1="26" x2="29" y2="41" stroke="#000000" stroke-width="2" stroke-miterlimit="10" fill="none" /><line x1="11" y1="16" x2="17" y2="25" stroke="#000000" stroke-width="2" stroke-miterlimit="10" fill="none" /><line x1="15" y1="14" x2="23" y2="21" stroke="#000000" stroke-width="2" stroke-linecap="square" stroke-miterlimit="10" fill="none" /><line x1="15" y1="11" x2="31" y2="7" stroke="#000000" stroke-width="2" stroke-miterlimit="10" fill="none" /><line x1="10" y1="7" x2="31" y2="5" stroke="#000000" stroke-width="2" stroke-miterlimit="10" fill="none" /><circle cx="21.5" cy="25.5" r="4.5" stroke="#000000" stroke-width="2" stroke-miterlimit="10" fill="none" /><circle cx="10.5" cy="11.5" r="4.5" stroke="#000000" stroke-width="2" stroke-miterlimit="10" fill="none" /><circle cx="33.5" cy="5.5" r="2.5" stroke="#000000" stroke-width="2" stroke-miterlimit="10" fill="none" /><line x1="34" y1="8" x2="34" y2="11" stroke="#000000" stroke-width="2" stroke-miterlimit="10" fill="none" /></g><path d="M29 12 42 12 42 17 29 17" stroke="#000000" stroke-width="2" stroke-linejoin="bevel" stroke-miterlimit="10" fill="none" /><path d="M34 21C32 21 32 20 32 20L32 17 36 17 36 20C36 20 36 21 34 21Z" stroke="#000000" stroke-width="2" stroke-linejoin="bevel" stroke-miterlimit="10" fill="none" /><path d="M29 17C27.6 17 26.5 15.9 26.5 14.5 26.5 13.1 27.6 12 29 12" stroke="#000000" stroke-width="2" stroke-miterlimit="10" fill="none" /></g></g></svg>