<svg xmlns="http://www.w3.org/2000/svg" viewBox="0 0 48 48" overflow="hidden" fill="currentColor"><g id="pictogram"><g><path d="M37 45 37 44 31 44 31 42 36 42 36 45 37 45 37 44 37 45 38 45 38 41 37 40 30 40 29 41 29 45 30 46 37 46 38 45Z" /><path d="M6 36 6 38 8 38 8 36" /><path d="M10 36 10 38 12 38 12 36" /><path d="M14 36 14 38 16 38 16 36" /><path d="M18 36 18 38 20 38 20 36" /><path d="M30 36 30 38 32 38 32 36" /><path d="M34 36 34 38 36 38 36 36" /><path d="M6 18 6 20 8 20 8 18" /><path d="M10 18 10 20 12 20 12 18" /><path d="M14 18 14 20 16 20 16 18" /><path d="M18 18 18 20 20 20 20 18" /><path d="M22 18 22 20 24 20 24 18" /><path d="M26 18 26 20 28 20 28 18" /><path d="M3.7 24 38 24 38 29 38 40 4 40 4 16 28 16 28 14 3 14 2 15 2 41 3 42 39 42 40 41 40 29 40 23 39 22 3.7 22 3.7 24Z" /><path d="M35 13 35 12 32 12 32 10 34 10 34 13 35 13 35 12 35 13 36 13 36 9 35 8 31 8 30 9 30 13 31 14 35 14 36 13Z" /><path d="M45 15 45 14 40 14 40 8 44 8 44 15 45 15 45 14 45 15 46 15 46 7 45 6 39 6 38 7 38 15 39 16 45 16 46 15Z" /><path d="M35 12 39 12 39 10 35 10" /><path d="M39 4 42 4 45 4 45 2 42 2 39 2 39 4Z" /><path d="M41 4 41 7 43 7 43 4" /><path d="M45 18 42 18 39 18 39 20 42 20 45 20 45 18Z" /><path d="M43 18 43 15 41 15 41 18" /></g></g></svg>