<svg xmlns="http://www.w3.org/2000/svg" version="1.1" x="0px" y="0px" viewBox="0 0 48 48" style="enable-background:new 0 0 48 48;" xml:space="preserve" fill="currentColor">
<style type="text/css">
	.st0{display:none;}
	.st1{display:inline;}
	.st2{fill:none;stroke:#28ABE3;stroke-width:5.000000e-02;stroke-miterlimit:10;}
	.st3{fill:none;stroke:#000000;stroke-width:2.0001;stroke-linejoin:bevel;stroke-miterlimit:10;}
	.st4{fill:none;stroke:#000000;stroke-width:2;stroke-linejoin:bevel;stroke-miterlimit:10;}
	.st5{fill:none;stroke:#000000;stroke-width:2.2001;stroke-linejoin:bevel;stroke-miterlimit:10;}
	.st6{fill:none;stroke:#000000;stroke-width:1.8858;stroke-linejoin:bevel;stroke-miterlimit:10;}
	.st7{fill:none;stroke:#000000;stroke-width:2;stroke-linecap:round;stroke-linejoin:bevel;stroke-miterlimit:10;}
	.st8{fill:none;stroke:#010101;stroke-width:2;stroke-linejoin:bevel;stroke-miterlimit:10;}
	.st9{fill:none;stroke:#010101;stroke-width:2;stroke-linejoin:bevel;}
	.st10{fill:none;stroke:#000101;stroke-width:2;stroke-linejoin:bevel;stroke-miterlimit:10;}
	.st11{fill:none;stroke:#000000;stroke-width:2;stroke-miterlimit:10;}
	.st12{fill:#FFFFFF;stroke:#000000;stroke-width:2;stroke-miterlimit:10;}
	.st13{fill:none;stroke:#000000;stroke-width:2;stroke-linejoin:bevel;}
	.st14{fill:none;stroke:#000101;stroke-width:2;stroke-linejoin:bevel;}
	.st15{fill:none;stroke:#010101;stroke-width:2;stroke-miterlimit:10;}
	.st16{fill:none;stroke:#000000;stroke-width:2.01;stroke-linejoin:bevel;}
	.st17{fill:none;stroke:#010101;stroke-width:1.8696;stroke-linejoin:bevel;stroke-miterlimit:10;}
	.st18{fill:#1B1B19;}
	.st19{fill:#111212;}
</style>

	<g class="st1">
		<line class="st2" x1="48" y1="0" x2="48" y2="48" />
		<line class="st2" x1="47" y1="0" x2="47" y2="48" />
		<line class="st2" x1="46" y1="0" x2="46" y2="48" />
		<line class="st2" x1="45" y1="0" x2="45" y2="48" />
		<line class="st2" x1="44" y1="0" x2="44" y2="48" />
		<line class="st2" x1="43" y1="0" x2="43" y2="48" />
		<line class="st2" x1="42" y1="0" x2="42" y2="48" />
		<line class="st2" x1="41" y1="0" x2="41" y2="48" />
		<line class="st2" x1="40" y1="0" x2="40" y2="48" />
		<line class="st2" x1="39" y1="0" x2="39" y2="48" />
		<line class="st2" x1="38" y1="0" x2="38" y2="48" />
		<line class="st2" x1="37" y1="0" x2="37" y2="48" />
		<line class="st2" x1="36" y1="0" x2="36" y2="48" />
		<line class="st2" x1="35" y1="0" x2="35" y2="48" />
		<line class="st2" x1="34" y1="0" x2="34" y2="48" />
		<line class="st2" x1="33" y1="0" x2="33" y2="48" />
		<line class="st2" x1="32" y1="0" x2="32" y2="48" />
		<line class="st2" x1="31" y1="0" x2="31" y2="48" />
		<line class="st2" x1="30" y1="0" x2="30" y2="48" />
		<line class="st2" x1="29" y1="0" x2="29" y2="48" />
		<line class="st2" x1="28" y1="0" x2="28" y2="48" />
		<line class="st2" x1="27" y1="0" x2="27" y2="48" />
		<line class="st2" x1="26" y1="0" x2="26" y2="48" />
		<line class="st2" x1="25" y1="0" x2="25" y2="48" />
		<line class="st2" x1="24" y1="0" x2="24" y2="48" />
		<line class="st2" x1="23" y1="0" x2="23" y2="48" />
		<line class="st2" x1="22" y1="0" x2="22" y2="48" />
		<line class="st2" x1="21" y1="0" x2="21" y2="48" />
		<line class="st2" x1="20" y1="0" x2="20" y2="48" />
		<line class="st2" x1="19" y1="0" x2="19" y2="48" />
		<line class="st2" x1="18" y1="0" x2="18" y2="48" />
		<line class="st2" x1="17" y1="0" x2="17" y2="48" />
		<line class="st2" x1="16" y1="0" x2="16" y2="48" />
		<line class="st2" x1="15" y1="0" x2="15" y2="48" />
		<line class="st2" x1="14" y1="0" x2="14" y2="48" />
		<line class="st2" x1="13" y1="0" x2="13" y2="48" />
		<line class="st2" x1="12" y1="0" x2="12" y2="48" />
		<line class="st2" x1="11" y1="0" x2="11" y2="48" />
		<line class="st2" x1="10" y1="0" x2="10" y2="48" />
		<line class="st2" x1="9" y1="0" x2="9" y2="48" />
		<line class="st2" x1="8" y1="0" x2="8" y2="48" />
		<line class="st2" x1="7" y1="0" x2="7" y2="48" />
		<line class="st2" x1="6" y1="0" x2="6" y2="48" />
		<line class="st2" x1="5" y1="0" x2="5" y2="48" />
		<line class="st2" x1="4" y1="0" x2="4" y2="48" />
		<line class="st2" x1="3" y1="0" x2="3" y2="48" />
		<line class="st2" x1="2" y1="0" x2="2" y2="48" />
		<line class="st2" x1="1" y1="0" x2="1" y2="48" />
		<line class="st2" x1="0" y1="0" x2="0" y2="48" />
		<line class="st2" x1="48" y1="0" x2="0" y2="0" />
		<line class="st2" x1="48" y1="1" x2="0" y2="1" />
		<line class="st2" x1="48" y1="2" x2="0" y2="2" />
		<line class="st2" x1="48" y1="3" x2="0" y2="3" />
		<line class="st2" x1="48" y1="4" x2="0" y2="4" />
		<line class="st2" x1="48" y1="5" x2="0" y2="5" />
		<line class="st2" x1="48" y1="6" x2="0" y2="6" />
		<line class="st2" x1="48" y1="7" x2="0" y2="7" />
		<line class="st2" x1="48" y1="8" x2="0" y2="8" />
		<line class="st2" x1="48" y1="9" x2="0" y2="9" />
		<line class="st2" x1="48" y1="10" x2="0" y2="10" />
		<line class="st2" x1="48" y1="11" x2="0" y2="11" />
		<line class="st2" x1="48" y1="12" x2="0" y2="12" />
		<line class="st2" x1="48" y1="13" x2="0" y2="13" />
		<line class="st2" x1="48" y1="14" x2="0" y2="14" />
		<line class="st2" x1="48" y1="15" x2="0" y2="15" />
		<line class="st2" x1="48" y1="16" x2="0" y2="16" />
		<line class="st2" x1="48" y1="17" x2="0" y2="17" />
		<line class="st2" x1="48" y1="18" x2="0" y2="18" />
		<line class="st2" x1="48" y1="19" x2="0" y2="19" />
		<line class="st2" x1="48" y1="20" x2="0" y2="20" />
		<line class="st2" x1="48" y1="21" x2="0" y2="21" />
		<line class="st2" x1="48" y1="22" x2="0" y2="22" />
		<line class="st2" x1="48" y1="23" x2="0" y2="23" />
		<line class="st2" x1="48" y1="24" x2="0" y2="24" />
		<line class="st2" x1="48" y1="25" x2="0" y2="25" />
		<line class="st2" x1="48" y1="26" x2="0" y2="26" />
		<line class="st2" x1="48" y1="27" x2="0" y2="27" />
		<line class="st2" x1="48" y1="28" x2="0" y2="28" />
		<line class="st2" x1="48" y1="29" x2="0" y2="29" />
		<line class="st2" x1="48" y1="30" x2="0" y2="30" />
		<line class="st2" x1="48" y1="31" x2="0" y2="31" />
		<line class="st2" x1="48" y1="32" x2="0" y2="32" />
		<line class="st2" x1="48" y1="33" x2="0" y2="33" />
		<line class="st2" x1="48" y1="34" x2="0" y2="34" />
		<line class="st2" x1="48" y1="35" x2="0" y2="35" />
		<line class="st2" x1="48" y1="36" x2="0" y2="36" />
		<line class="st2" x1="48" y1="37" x2="0" y2="37" />
		<line class="st2" x1="48" y1="38" x2="0" y2="38" />
		<line class="st2" x1="48" y1="39" x2="0" y2="39" />
		<line class="st2" x1="48" y1="40" x2="0" y2="40" />
		<line class="st2" x1="48" y1="41" x2="0" y2="41" />
		<line class="st2" x1="48" y1="42" x2="0" y2="42" />
		<line class="st2" x1="48" y1="43" x2="0" y2="43" />
		<line class="st2" x1="48" y1="44" x2="0" y2="44" />
		<line class="st2" x1="48" y1="45" x2="0" y2="45" />
		<line class="st2" x1="48" y1="46" x2="0" y2="46" />
		<line class="st2" x1="48" y1="47" x2="0" y2="47" />
		<line class="st2" x1="48" y1="48" x2="0" y2="48" />
	</g>
	<g class="st1">
		<line class="st2" x1="48" y1="0" x2="48" y2="48" />
		<line class="st2" x1="47" y1="0" x2="47" y2="48" />
		<line class="st2" x1="46" y1="0" x2="46" y2="48" />
		<line class="st2" x1="45" y1="0" x2="45" y2="48" />
		<line class="st2" x1="44" y1="0" x2="44" y2="48" />
		<line class="st2" x1="43" y1="0" x2="43" y2="48" />
		<line class="st2" x1="42" y1="0" x2="42" y2="48" />
		<line class="st2" x1="41" y1="0" x2="41" y2="48" />
		<line class="st2" x1="40" y1="0" x2="40" y2="48" />
		<line class="st2" x1="39" y1="0" x2="39" y2="48" />
		<line class="st2" x1="38" y1="0" x2="38" y2="48" />
		<line class="st2" x1="37" y1="0" x2="37" y2="48" />
		<line class="st2" x1="36" y1="0" x2="36" y2="48" />
		<line class="st2" x1="35" y1="0" x2="35" y2="48" />
		<line class="st2" x1="34" y1="0" x2="34" y2="48" />
		<line class="st2" x1="33" y1="0" x2="33" y2="48" />
		<line class="st2" x1="32" y1="0" x2="32" y2="48" />
		<line class="st2" x1="31" y1="0" x2="31" y2="48" />
		<line class="st2" x1="30" y1="0" x2="30" y2="48" />
		<line class="st2" x1="29" y1="0" x2="29" y2="48" />
		<line class="st2" x1="28" y1="0" x2="28" y2="48" />
		<line class="st2" x1="27" y1="0" x2="27" y2="48" />
		<line class="st2" x1="26" y1="0" x2="26" y2="48" />
		<line class="st2" x1="25" y1="0" x2="25" y2="48" />
		<line class="st2" x1="24" y1="0" x2="24" y2="48" />
		<line class="st2" x1="23" y1="0" x2="23" y2="48" />
		<line class="st2" x1="22" y1="0" x2="22" y2="48" />
		<line class="st2" x1="21" y1="0" x2="21" y2="48" />
		<line class="st2" x1="20" y1="0" x2="20" y2="48" />
		<line class="st2" x1="19" y1="0" x2="19" y2="48" />
		<line class="st2" x1="18" y1="0" x2="18" y2="48" />
		<line class="st2" x1="17" y1="0" x2="17" y2="48" />
		<line class="st2" x1="16" y1="0" x2="16" y2="48" />
		<line class="st2" x1="15" y1="0" x2="15" y2="48" />
		<line class="st2" x1="14" y1="0" x2="14" y2="48" />
		<line class="st2" x1="13" y1="0" x2="13" y2="48" />
		<line class="st2" x1="12" y1="0" x2="12" y2="48" />
		<line class="st2" x1="11" y1="0" x2="11" y2="48" />
		<line class="st2" x1="10" y1="0" x2="10" y2="48" />
		<line class="st2" x1="9" y1="0" x2="9" y2="48" />
		<line class="st2" x1="8" y1="0" x2="8" y2="48" />
		<line class="st2" x1="7" y1="0" x2="7" y2="48" />
		<line class="st2" x1="6" y1="0" x2="6" y2="48" />
		<line class="st2" x1="5" y1="0" x2="5" y2="48" />
		<line class="st2" x1="4" y1="0" x2="4" y2="48" />
		<line class="st2" x1="3" y1="0" x2="3" y2="48" />
		<line class="st2" x1="2" y1="0" x2="2" y2="48" />
		<line class="st2" x1="1" y1="0" x2="1" y2="48" />
		<line class="st2" x1="0" y1="0" x2="0" y2="48" />
		<line class="st2" x1="48" y1="0" x2="0" y2="0" />
		<line class="st2" x1="48" y1="1" x2="0" y2="1" />
		<line class="st2" x1="48" y1="2" x2="0" y2="2" />
		<line class="st2" x1="48" y1="3" x2="0" y2="3" />
		<line class="st2" x1="48" y1="4" x2="0" y2="4" />
		<line class="st2" x1="48" y1="5" x2="0" y2="5" />
		<line class="st2" x1="48" y1="6" x2="0" y2="6" />
		<line class="st2" x1="48" y1="7" x2="0" y2="7" />
		<line class="st2" x1="48" y1="8" x2="0" y2="8" />
		<line class="st2" x1="48" y1="9" x2="0" y2="9" />
		<line class="st2" x1="48" y1="10" x2="0" y2="10" />
		<line class="st2" x1="48" y1="11" x2="0" y2="11" />
		<line class="st2" x1="48" y1="12" x2="0" y2="12" />
		<line class="st2" x1="48" y1="13" x2="0" y2="13" />
		<line class="st2" x1="48" y1="14" x2="0" y2="14" />
		<line class="st2" x1="48" y1="15" x2="0" y2="15" />
		<line class="st2" x1="48" y1="16" x2="0" y2="16" />
		<line class="st2" x1="48" y1="17" x2="0" y2="17" />
		<line class="st2" x1="48" y1="18" x2="0" y2="18" />
		<line class="st2" x1="48" y1="19" x2="0" y2="19" />
		<line class="st2" x1="48" y1="20" x2="0" y2="20" />
		<line class="st2" x1="48" y1="21" x2="0" y2="21" />
		<line class="st2" x1="48" y1="22" x2="0" y2="22" />
		<line class="st2" x1="48" y1="23" x2="0" y2="23" />
		<line class="st2" x1="48" y1="24" x2="0" y2="24" />
		<line class="st2" x1="48" y1="25" x2="0" y2="25" />
		<line class="st2" x1="48" y1="26" x2="0" y2="26" />
		<line class="st2" x1="48" y1="27" x2="0" y2="27" />
		<line class="st2" x1="48" y1="28" x2="0" y2="28" />
		<line class="st2" x1="48" y1="29" x2="0" y2="29" />
		<line class="st2" x1="48" y1="30" x2="0" y2="30" />
		<line class="st2" x1="48" y1="31" x2="0" y2="31" />
		<line class="st2" x1="48" y1="32" x2="0" y2="32" />
		<line class="st2" x1="48" y1="33" x2="0" y2="33" />
		<line class="st2" x1="48" y1="34" x2="0" y2="34" />
		<line class="st2" x1="48" y1="35" x2="0" y2="35" />
		<line class="st2" x1="48" y1="36" x2="0" y2="36" />
		<line class="st2" x1="48" y1="37" x2="0" y2="37" />
		<line class="st2" x1="48" y1="38" x2="0" y2="38" />
		<line class="st2" x1="48" y1="39" x2="0" y2="39" />
		<line class="st2" x1="48" y1="40" x2="0" y2="40" />
		<line class="st2" x1="48" y1="41" x2="0" y2="41" />
		<line class="st2" x1="48" y1="42" x2="0" y2="42" />
		<line class="st2" x1="48" y1="43" x2="0" y2="43" />
		<line class="st2" x1="48" y1="44" x2="0" y2="44" />
		<line class="st2" x1="48" y1="45" x2="0" y2="45" />
		<line class="st2" x1="48" y1="46" x2="0" y2="46" />
		<line class="st2" x1="48" y1="47" x2="0" y2="47" />
		<line class="st2" x1="48" y1="48" x2="0" y2="48" />
	</g>
</g>
<g id="pictogram">
	<g>
		<polygon points="3,8 3,9 44,9 44,41 4,41 4,8 3,8 3,9 3,8 2,8 2,42 3,43 45,43 46,42 46,8 45,7 3,7 2,8   " />
		<polyline points="24,7 24,42 26,42 26,7   " />
		<polyline points="45,27 3,27 3,29 45,29   " />
		<polyline points="7,28 7,42 9,42 9,28   " />
		<polyline points="12,28 12,38 14,38 14,28   " />
		<polyline points="19,28 19,38 21,38 21,28   " />
		<polyline points="9,31 4,31 4,33 9,33   " />
		<polyline points="9,37 4,37 4,39 9,39   " />
		<polyline points="29,28 29,38 31,38 31,28   " />
		<polyline points="39,28 39,38 41,38 41,28   " />
		<polyline points="34,28 34,38 36,38 36,28   " />
		<polyline points="41,11 39,11 39,13 41,13   " />
		<polyline points="41,15 39,15 39,17 41,17   " />
		<polyline points="41,19 39,19 39,21 41,21   " />
		<polyline points="36,11 34,11 34,13 36,13   " />
		<polyline points="36,15 34,15 34,17 36,17   " />
		<polyline points="36,19 34,19 34,21 36,21   " />
		<polyline points="31,11 29,11 29,13 31,13   " />
		<polyline points="31,15 29,15 29,17 31,17   " />
		<polyline points="31,19 29,19 29,21 31,21   " />
		<polyline points="41,23 39,23 39,25 41,25   " />
		<polyline points="36,23 34,23 34,25 36,25   " />
		<polyline points="31,23 29,23 29,25 31,25   " />
		<polyline points="21,11 19,11 19,13 21,13   " />
		<polyline points="21,15 19,15 19,17 21,17   " />
		<polyline points="21,19 19,19 19,21 21,21   " />
		<polyline points="16,11 14,11 14,13 16,13   " />
		<polyline points="16,15 14,15 14,17 16,17   " />
		<polyline points="16,19 14,19 14,21 16,21   " />
		<polyline points="11,11 9,11 9,13 11,13   " />
		<polyline points="11,15 9,15 9,17 11,17   " />
		<polyline points="21,23 19,23 19,25 21,25   " />
		<polyline points="16,23 14,23 14,25 16,25   " />
	</g>
</g>
</svg>