<svg xmlns="http://www.w3.org/2000/svg" id="pictogram" viewBox="0 0 48.05 48.05" fill="currentColor">
  <defs>
    <style>
      .cls-1 {
        fill: #000;
        stroke-width: 0px;
      }
    </style>
  </defs>
  <path class="cls-1" d="M21.02,42.03c-6.07,0-11-4.93-11-11s4.93-11,11-11,11,4.93,11,11-4.93,11-11,11ZM21.02,22.03c-4.96,0-9,4.04-9,9s4.04,9,9,9,9-4.04,9-9-4.04-9-9-9Z" />
  <path class="cls-1" d="M35.2,35.7l-1.88-.67c.47-1.33.71-2.74.71-4.18,0-4.66-2.56-8.9-6.69-11.08l.93-1.77c4.79,2.52,7.76,7.44,7.76,12.84,0,1.66-.28,3.29-.83,4.84Z" />
  <path class="cls-1" d="M6.85,35.7c-.55-1.55-.83-3.18-.83-4.84,0-5.41,2.97-10.33,7.76-12.84l.93,1.77c-4.13,2.17-6.69,6.42-6.69,11.08,0,1.44.24,2.84.71,4.18l-1.88.67Z" />
  <path class="cls-1" d="M36.02,18.1c-3.31,0-6-2.69-6-6s2.69-6,6-6,6,2.69,6,6-2.69,6-6,6ZM36.02,8.1c-2.21,0-4,1.79-4,4s1.79,4,4,4,4-1.79,4-4-1.79-4-4-4Z" />
  <rect class="cls-1" x="20.02" y="23.03" width="2" height="2.99" />
  <rect class="cls-1" x="33.03" y="8.62" width="2" height="2.83" transform="translate(2.87 27) rotate(-45)" />
  <rect class="cls-1" x="26.02" y="9.03" width="2" height="1.99" />
  <rect class="cls-1" x="28.02" y="5.04" width="2" height="1.99" />
  <rect class="cls-1" x="26.02" y="13.04" width="2" height="1.99" />
  <rect class="cls-1" x="32.02" y="37.03" width="2" height="2" />
  <rect class="cls-1" x="8.02" y="37.03" width="2" height="2" />
  <path class="cls-1" d="M45.02,46.03H3.02l-1-1V3.03l1-1h42l1,1v42l-1,1ZM4.02,44.03h40V4.03H4.02v40Z" />
</svg>